HIERARCHY
ROOT mixamorig:Hips
{
  OFFSET 0.000000 0.000000 0.000000
  CHANNELS 6 Xposition Yposition Zposition Xrotation Yrotation Zrotation
  JOINT mixamorig:Spine
  {
    OFFSET 0.384862 23.362435 -6.545746
    CHANNELS 3 Xrotation Yrotation Zrotation
    JOINT mixamorig:Spine2
    {
      OFFSET 0.384862 23.362435 -6.545746
      CHANNELS 3 Xrotation Yrotation Zrotation
      JOINT mixamorig:Neck
      {
        OFFSET 0.000000 3.494450 0.000000
        CHANNELS 3 Xrotation Yrotation Zrotation
        JOINT mixamorig:Head
        {
          OFFSET 0.000000 3.104519 0.000000
          CHANNELS 3 Xrotation Yrotation Zrotation
          End Site
          {
            OFFSET 0.000000 0.931356 0.000000
          }
        }
      }
      JOINT mixamorig:LeftShoulder
      {
        OFFSET 16.753096 1.874518 -2.350806
        CHANNELS 3 Xrotation Yrotation Zrotation
        JOINT mixamorig:LeftArm
        {
          OFFSET 9.215470 -17.927143 -6.750691
          CHANNELS 3 Xrotation Yrotation Zrotation
          JOINT mixamorig:LeftForeArm
          {
            OFFSET -8.631796 -1.807562 -13.626102
            CHANNELS 3 Xrotation Yrotation Zrotation
            JOINT mixamorig:LeftHand
            {
              OFFSET -3.581741 1.574515 -2.219805
              CHANNELS 3 Xrotation Yrotation Zrotation
              End Site
              {
                OFFSET -1.074522 0.472355 -0.665942
              }
            }
          }
        }
      }
      JOINT mixamorig:RightShoulder
      {
        OFFSET -16.753096 1.874518 2.350806
        CHANNELS 3 Xrotation Yrotation Zrotation
        JOINT mixamorig:RightArm
        {
          OFFSET -4.024878 -26.092607 -12.467419
          CHANNELS 3 Xrotation Yrotation Zrotation
          JOINT mixamorig:RightForeArm
          {
            OFFSET 6.746233 1.826222 -21.720462
            CHANNELS 3 Xrotation Yrotation Zrotation
            JOINT mixamorig:RightHand
            {
              OFFSET 4.773503 3.298478 -5.155945
              CHANNELS 3 Xrotation Yrotation Zrotation
              End Site
              {
                OFFSET 1.432051 0.989543 -1.546783
              }
            }
          }
        }
      }
    }
  }
  JOINT mixamorig:LeftUpLeg
  {
    OFFSET 9.108096 0.180174 1.189578
    CHANNELS 3 Xrotation Yrotation Zrotation
    JOINT mixamorig:LeftLeg
    {
      OFFSET 8.006705 -41.225060 -10.059709
      CHANNELS 3 Xrotation Yrotation Zrotation
      JOINT mixamorig:LeftFoot
      {
        OFFSET 3.400898 -37.290034 11.365810
        CHANNELS 3 Xrotation Yrotation Zrotation
        JOINT mixamorig:LeftToeBase
        {
          OFFSET 2.883568 -4.422998 -6.372284
          CHANNELS 3 Xrotation Yrotation Zrotation
          End Site
          {
            OFFSET 0.865071 -1.326900 -1.911685
          }
        }
      }
    }
  }
  JOINT mixamorig:RightUpLeg
  {
    OFFSET -9.108096 -0.180174 -1.189578
    CHANNELS 3 Xrotation Yrotation Zrotation
    JOINT mixamorig:RightLeg
    {
      OFFSET -2.107032 -32.214779 1.747249
      CHANNELS 3 Xrotation Yrotation Zrotation
      JOINT mixamorig:RightFoot
      {
        OFFSET -3.136493 -41.782707 15.884636
        CHANNELS 3 Xrotation Yrotation Zrotation
        JOINT mixamorig:RightToeBase
        {
          OFFSET -9.692626 -1.266161 -8.277397
          CHANNELS 3 Xrotation Yrotation Zrotation
          End Site
          {
            OFFSET -2.907788 -0.379848 -2.483219
          }
        }
      }
    }
  }
}
MOTION
Frames: 7
Frame Time: 0.083333
0.055292 0.140511 0.162464 1.353223 -0.020000 0.008435 0.000000 0.000000 0.000000 -15.536330 7.256268 1.832662 5.805509 -4.106518 9.201302 5.027552 -4.990979 8.804272 14.026149 -6.674675 -2.127062 0.895471 -1.965081 1.764849 -1.077337 0.436652 0.325364 0.000000 0.000000 0.000000 16.004279 -7.486789 -0.297241 -1.692154 2.042632 0.802532 -0.008197 -0.618472 0.861922 0.000000 0.000000 0.000000 0.308807 0.371993 -0.106121 -4.566405 -0.550051 0.268406 -1.804368 2.177750 -4.050754 0.000000 0.000000 0.000000 -0.390711 -0.045336 -0.076373 -1.509821 -0.225242 -0.768453 0.295100 -2.223305 1.574758 0.000000 0.000000 0.000000
0.056877 0.141614 0.167192 1.292394 -0.019690 0.005639 0.000000 0.000000 0.000000 -15.536351 7.255213 1.848790 5.615681 -4.252127 9.216427 4.813888 -5.105336 8.812985 13.914807 -6.813230 -2.043735 1.207358 -1.873913 1.560328 -1.223995 0.351952 0.365919 0.000000 0.000000 0.000000 16.093082 -7.469077 -0.346059 -1.659284 1.771587 0.854780 -0.135842 -0.525293 0.689624 0.000000 0.000000 0.000000 -0.346699 0.228965 -0.096406 -3.465793 -0.309895 0.444832 -1.842613 2.504227 -4.442009 0.000000 0.000000 0.000000 -0.700057 -0.023314 -0.092942 -1.035320 -0.242187 -0.720691 0.075245 -2.016126 1.654831 0.000000 0.000000 0.000000
0.058775 0.145459 0.174470 3.556288 -0.060564 -0.012047 0.000000 0.000000 0.000000 -15.550967 6.363941 1.376275 5.994197 -3.959012 8.918593 5.265523 -4.854489 8.528335 13.640433 -4.930618 -1.387834 1.469241 -5.595630 0.134184 -3.902983 0.875287 1.078627 0.000000 0.000000 0.000000 14.555165 -6.386164 -0.628647 -1.464120 4.343969 1.718381 -0.900146 -1.181749 1.454865 0.000000 0.000000 0.000000 -2.926558 0.240826 -0.220006 -6.610414 -0.103283 1.990595 -5.542574 8.637022 -14.681223 0.000000 0.000000 0.000000 -3.110872 0.008914 -0.294430 -1.433328 -0.764873 -1.961997 -0.448730 -5.228620 5.089232 0.000000 0.000000 0.000000
0.059191 0.150238 0.177777 5.118681 -0.114180 -0.138670 0.000000 0.000000 0.000000 -15.568249 5.306587 1.142527 4.744189 -4.756078 8.795961 3.912098 -5.434468 8.401038 12.676874 -3.916643 -0.342939 3.187038 -9.069157 -2.004031 -6.740706 1.268981 1.650832 0.000000 0.000000 0.000000 14.105137 -4.967486 -1.449188 -1.043963 4.752947 3.192266 -2.728081 -1.039485 0.906011 0.000000 0.000000 0.000000 -8.429190 -0.495085 -0.105485 -2.594917 1.682264 4.910152 -8.762442 16.228571 -26.763663 0.000000 0.000000 0.000000 -7.685362 0.204642 -0.452972 1.412078 -1.361364 -2.819606 -2.035882 -6.371722 8.714026 0.000000 0.000000 0.000000
0.061563 0.153706 0.178350 6.460967 -0.196700 -0.425225 0.000000 0.000000 0.000000 -15.594248 3.703933 1.069632 3.289012 -5.476893 8.690486 2.377796 -5.915818 8.348242 11.695444 -2.327098 0.180854 4.598599 -12.434672 -3.447619 -8.656113 2.431187 2.125051 0.000000 0.000000 0.000000 14.502870 -2.892601 -2.700019 -1.334940 4.729197 4.989704 -4.431801 -1.035298 0.204430 0.000000 0.000000 0.000000 -10.338066 -0.628748 0.428128 -1.009512 2.894047 7.494348 -9.710195 18.772816 -32.898309 0.000000 0.000000 0.000000 -12.047315 0.369016 -0.390281 3.122001 -1.881233 -3.660787 -2.336769 -6.006906 11.795760 0.000000 0.000000 0.000000
0.065016 0.155217 0.177873 8.032309 -0.286154 -0.768965 0.000000 0.000000 0.000000 -15.627532 1.647407 1.039135 2.186537 -6.021413 8.375358 1.246745 -6.276639 8.101686 9.864307 -0.495700 0.312701 8.975927 -13.342130 -6.356771 -11.651217 3.540797 3.799802 0.000000 0.000000 0.000000 15.257737 -0.255310 -4.330104 -3.119149 3.448480 6.571481 -5.118485 -1.560378 -0.750045 0.000000 0.000000 0.000000 -11.360420 -0.681668 1.577606 -0.309507 3.629227 8.648741 -8.142010 11.747567 -27.330947 0.000000 0.000000 0.000000 -15.286454 0.397821 -0.553005 2.656600 -2.286932 -4.144088 -1.791950 -3.973910 14.386782 0.000000 0.000000 0.000000
0.067909 0.156343 0.176948 9.693542 -0.372775 -1.157031 0.000000 0.000000 0.000000 -15.645286 0.561339 1.272282 1.471713 -6.562215 7.875645 0.529805 -6.708796 7.656667 7.455899 0.085352 0.479279 13.252876 -14.599676 -8.903460 -13.727567 5.095274 3.987474 0.000000 0.000000 0.000000 15.029239 1.516135 -5.942291 -3.717788 0.999935 8.010771 -5.179551 -1.525056 -1.056288 0.000000 0.000000 0.000000 -12.810792 -0.986738 3.459630 1.123852 4.497780 9.032731 -8.712076 5.603192 -23.385633 0.000000 0.000000 0.000000 -13.611448 0.211020 -1.400683 -1.395400 -2.514563 -3.335791 -1.433793 -3.494905 15.203043 0.000000 0.000000 0.000000
